# xmcd CD database file
#
# Track frame offsets:
#	183
#	30028
#	38150
#	53933
#	65845
#	77485
#	100885
#	114703
#	125068
#	137243
#	149113
#	181953
#	196715
#	212438
#
# Disc length: 3342 seconds
#
# Revision: 7
# Processed by: cddbd v1.5.1PL0 Copyright (c) Steve Scherf et al.
# Submitted via: CDex 1.50
#
DISCID=ca0d0c0e
DTITLE=Guitar Kings - Guitar Kings
DYEAR=1992
DGENRE=Rock
TTITLE0=Jimi Hendrix - The Sunshine Of Your Love
TTITLE1=Carlos Santana - Soul Sacrifice
TTITLE2=Johnny Winter - Self Destruction Blues
TTITLE3=Chuck Berry - Johnny B. Goode
TTITLE4=Eric Clapton - Freight Loader
TTITLE5=BB King - How Blue Can You Get
TTITLE6=Bo Diddley - Before You Accuse Me
TTITLE7=Eric Clapton - West Coast Idea
TTITLE8=Chuck Berry - No Particular Place To Go
TTITLE9=Bo Diddley - Live My Life
TTITLE10=Jimi Hendrix - Voodoo Chile (Slight Return)
TTITLE11=Johnny Winter - Pick Up On My Mojo
TTITLE12=BB King - The Letter
TTITLE13=Santana - Jam In E
EXTD=YEAR: 1992
EXTT0=
EXTT1=
EXTT2=
EXTT3=
EXTT4=
EXTT5=
EXTT6=
EXTT7=
EXTT8=
EXTT9=
EXTT10=
EXTT11=
EXTT12=
EXTT13=
PLAYORDER=
